<mxfile host="Electron" modified="2024-02-16T00:06:20.702Z" agent="Mozilla/5.0 (Windows NT 10.0; Win64; x64) AppleWebKit/537.36 (KHTML, like Gecko) draw.io/23.0.2 Chrome/120.0.6099.109 Electron/28.1.0 Safari/537.36" etag="AOAx07PU0zVcaL-WQHGf" version="23.0.2" type="device">
  <diagram name="Seite-1" id="RyZOXSuVCfZwr-WLkFGk">
    <mxGraphModel dx="574" dy="334" grid="1" gridSize="10" guides="1" tooltips="1" connect="1" arrows="1" fold="1" page="0" pageScale="1" pageWidth="827" pageHeight="1169" math="0" shadow="0">
      <root>
        <mxCell id="0" />
        <mxCell id="1" parent="0" />
        <mxCell id="MjGkLyXxVV8b3bMw0a6b-6" style="edgeStyle=orthogonalEdgeStyle;rounded=0;orthogonalLoop=1;jettySize=auto;html=1;exitX=1;exitY=0.25;exitDx=0;exitDy=0;entryX=0.25;entryY=1;entryDx=0;entryDy=0;" edge="1" parent="1" source="MjGkLyXxVV8b3bMw0a6b-1" target="MjGkLyXxVV8b3bMw0a6b-3">
          <mxGeometry relative="1" as="geometry" />
        </mxCell>
        <mxCell id="MjGkLyXxVV8b3bMw0a6b-10" style="edgeStyle=orthogonalEdgeStyle;rounded=0;orthogonalLoop=1;jettySize=auto;html=1;exitX=0;exitY=0.5;exitDx=0;exitDy=0;entryX=0.5;entryY=1;entryDx=0;entryDy=0;" edge="1" parent="1" source="MjGkLyXxVV8b3bMw0a6b-1" target="MjGkLyXxVV8b3bMw0a6b-2">
          <mxGeometry relative="1" as="geometry" />
        </mxCell>
        <mxCell id="MjGkLyXxVV8b3bMw0a6b-16" style="rounded=0;orthogonalLoop=1;jettySize=auto;html=1;exitX=0.25;exitY=1;exitDx=0;exitDy=0;entryX=0.25;entryY=0;entryDx=0;entryDy=0;" edge="1" parent="1" source="MjGkLyXxVV8b3bMw0a6b-1" target="MjGkLyXxVV8b3bMw0a6b-5">
          <mxGeometry relative="1" as="geometry" />
        </mxCell>
        <mxCell id="MjGkLyXxVV8b3bMw0a6b-1" value="Idle" style="rounded=1;whiteSpace=wrap;html=1;" vertex="1" parent="1">
          <mxGeometry x="300" y="280" width="50" height="30" as="geometry" />
        </mxCell>
        <mxCell id="MjGkLyXxVV8b3bMw0a6b-11" style="edgeStyle=orthogonalEdgeStyle;rounded=0;orthogonalLoop=1;jettySize=auto;html=1;exitX=0.75;exitY=1;exitDx=0;exitDy=0;entryX=0;entryY=0.25;entryDx=0;entryDy=0;" edge="1" parent="1" source="MjGkLyXxVV8b3bMw0a6b-2" target="MjGkLyXxVV8b3bMw0a6b-1">
          <mxGeometry relative="1" as="geometry" />
        </mxCell>
        <mxCell id="MjGkLyXxVV8b3bMw0a6b-12" style="edgeStyle=orthogonalEdgeStyle;rounded=0;orthogonalLoop=1;jettySize=auto;html=1;exitX=1;exitY=0.5;exitDx=0;exitDy=0;entryX=0;entryY=0.5;entryDx=0;entryDy=0;" edge="1" parent="1" source="MjGkLyXxVV8b3bMw0a6b-2" target="MjGkLyXxVV8b3bMw0a6b-3">
          <mxGeometry relative="1" as="geometry" />
        </mxCell>
        <mxCell id="MjGkLyXxVV8b3bMw0a6b-14" style="edgeStyle=orthogonalEdgeStyle;rounded=0;orthogonalLoop=1;jettySize=auto;html=1;exitX=0.25;exitY=1;exitDx=0;exitDy=0;entryX=0;entryY=0.25;entryDx=0;entryDy=0;" edge="1" parent="1" source="MjGkLyXxVV8b3bMw0a6b-2" target="MjGkLyXxVV8b3bMw0a6b-5">
          <mxGeometry relative="1" as="geometry" />
        </mxCell>
        <mxCell id="MjGkLyXxVV8b3bMw0a6b-2" value="Walk" style="rounded=1;whiteSpace=wrap;html=1;" vertex="1" parent="1">
          <mxGeometry x="200" y="220" width="50" height="30" as="geometry" />
        </mxCell>
        <mxCell id="MjGkLyXxVV8b3bMw0a6b-7" style="edgeStyle=orthogonalEdgeStyle;rounded=0;orthogonalLoop=1;jettySize=auto;html=1;exitX=0.5;exitY=1;exitDx=0;exitDy=0;entryX=1;entryY=0.5;entryDx=0;entryDy=0;" edge="1" parent="1" source="MjGkLyXxVV8b3bMw0a6b-3" target="MjGkLyXxVV8b3bMw0a6b-1">
          <mxGeometry relative="1" as="geometry" />
        </mxCell>
        <mxCell id="MjGkLyXxVV8b3bMw0a6b-13" style="edgeStyle=orthogonalEdgeStyle;rounded=0;orthogonalLoop=1;jettySize=auto;html=1;exitX=0;exitY=0.75;exitDx=0;exitDy=0;entryX=1;entryY=0.75;entryDx=0;entryDy=0;" edge="1" parent="1" source="MjGkLyXxVV8b3bMw0a6b-3" target="MjGkLyXxVV8b3bMw0a6b-2">
          <mxGeometry relative="1" as="geometry" />
        </mxCell>
        <mxCell id="MjGkLyXxVV8b3bMw0a6b-15" style="edgeStyle=orthogonalEdgeStyle;rounded=0;orthogonalLoop=1;jettySize=auto;html=1;exitX=0.75;exitY=1;exitDx=0;exitDy=0;entryX=1;entryY=0.25;entryDx=0;entryDy=0;" edge="1" parent="1" source="MjGkLyXxVV8b3bMw0a6b-3" target="MjGkLyXxVV8b3bMw0a6b-5">
          <mxGeometry relative="1" as="geometry" />
        </mxCell>
        <mxCell id="MjGkLyXxVV8b3bMw0a6b-3" value="Air" style="rounded=1;whiteSpace=wrap;html=1;" vertex="1" parent="1">
          <mxGeometry x="400" y="220" width="50" height="30" as="geometry" />
        </mxCell>
        <mxCell id="MjGkLyXxVV8b3bMw0a6b-17" style="rounded=0;orthogonalLoop=1;jettySize=auto;html=1;exitX=0.75;exitY=0;exitDx=0;exitDy=0;entryX=0.75;entryY=1;entryDx=0;entryDy=0;" edge="1" parent="1" source="MjGkLyXxVV8b3bMw0a6b-5" target="MjGkLyXxVV8b3bMw0a6b-1">
          <mxGeometry relative="1" as="geometry" />
        </mxCell>
        <mxCell id="MjGkLyXxVV8b3bMw0a6b-5" value="Inactive" style="rounded=1;whiteSpace=wrap;html=1;" vertex="1" parent="1">
          <mxGeometry x="300" y="380" width="50" height="30" as="geometry" />
        </mxCell>
        <mxCell id="MjGkLyXxVV8b3bMw0a6b-18" value="&lt;font style=&quot;font-size: 16px;&quot;&gt;Charakter-Status&lt;/font&gt;" style="text;html=1;strokeColor=none;fillColor=none;align=center;verticalAlign=middle;whiteSpace=wrap;rounded=0;fontSize=16;fontStyle=1" vertex="1" parent="1">
          <mxGeometry x="256.87" y="150" width="136.25" height="30" as="geometry" />
        </mxCell>
      </root>
    </mxGraphModel>
  </diagram>
</mxfile>
